<svg xmlns="http://www.w3.org/2000/svg" viewBox="0 0 32 32" role="img" aria-label="Memo Garden">
  <defs>
    <linearGradient id="bg" x1="4" y1="2" x2="28" y2="30" gradientUnits="userSpaceOnUse">
      <stop offset="0" stop-color="#86efac"/>
      <stop offset="0.5" stop-color="#22c55e"/>
      <stop offset="1" stop-color="#166534"/>
    </linearGradient>
    <linearGradient id="leaf" x1="0%" y1="0%" x2="100%" y2="100%">
      <stop offset="0%" stop-color="#ffffff"/>
      <stop offset="55%" stop-color="#f0fdf4"/>
      <stop offset="100%" stop-color="#bbf7d0"/>
    </linearGradient>
  </defs>
  <rect width="32" height="32" rx="7.2" fill="url(#bg)"/>
  <svg x="2.2" y="2.2" width="27.6" height="27.6" viewBox="0 0 1280 906" aria-hidden="true">
    <g transform="translate(0,906) scale(0.1,-0.1)" fill="url(#leaf)" stroke="none">
      <path d="M7025 8363 c-555 -24 -1130 -126 -1615 -285 -229 -75 -286 -101 -311 -142 -27 -44 -24 -95 16 -366 124 -822 126 -840 101 -840 -8 0 -43 23 -76 51 -502 418 -831 685 -858 696 -66 28 -121 0 -357 -182 -347 -267 -679 -599 -966 -966 -155 -199 -189 -253 -189 -302 0 -25 9 -56 20 -75 12 -19 155 -210 319 -425 382 -503 362 -475 314 -462 -24 6 -536 272 -642 333 -88 51 -266 132 -291 132 -74 0 -111 -54 -315 -465 -132 -266 -230 -488 -338 -761 -149 -378 -176 -478 -145 -538 7 -14 125 -141 262 -282 157 -162 245 -259 238 -266 -6 -6 -106 26 -273 87 -306 112 -335 117 -384 64 -33 -37 -60 -117 -150 -454 -146 -549 -363 -1593 -368 -1772 -2 -56 1 -65 27 -92 20 -21 45 -33 80 -40 130 -27 1670 -184 2174 -222 189 -15 216 -9 247 57 17 35 18 68 13 455 -3 229 -2 423 3 430 7 11 12 10 28 -6 10 -11 155 -228 321 -483 191 -293 315 -472 336 -488 45 -35 95 -40 554 -55 587 -19 1235 -5 1688 36 181 17 214 28 239 80 21 44 19 63 -72 597 -39 223 -67 410 -63 414 4 4 17 3 27 -2 11 -5 234 -187 497 -404 262 -217 501 -412 531 -432 70 -48 100 -49 263 -4 266 73 604 203 845 323 298 150 656 385 806 532 54 52 59 61 59 99 0 24 -7 56 -15 72 -8 15 -156 245 -330 510 -173 265 -315 489 -315 496 0 8 5 14 11 14 7 0 219 -107 473 -239 645 -334 618 -321 660 -321 58 0 89 23 158 117 278 377 527 836 729 1341 86 213 129 342 129 381 0 70 -24 91 -360 298 -321 198 -349 217 -337 229 4 4 169 -7 368 -26 198 -18 381 -30 406 -27 62 7 98 44 123 126 58 192 178 699 245 1036 90 452 216 1268 219 1412 1 74 -1 84 -24 108 -34 36 -42 40 -204 96 -652 228 -1503 459 -2218 603 -139 29 -552 96 -618 102 -78 6 -118 -13 -148 -73 -11 -21 -63 -186 -116 -368 -124 -424 -130 -439 -151 -405 -3 5 -60 195 -126 421 -66 227 -129 427 -139 445 -33 53 -70 63 -262 74 -158 9 -582 10 -753 3z"/>
    </g>
  </svg>
</svg>
